<?xml version="1.0" encoding="utf-8"?>
<!-- Generator: Adobe Illustrator 19.0.1, SVG Export Plug-In . SVG Version: 6.00 Build 0)  -->
<svg version="1.1" id="Layer_1" xmlns="http://www.w3.org/2000/svg" xmlns:xlink="http://www.w3.org/1999/xlink" x="0px" y="0px"
	 viewBox="0 0 768 768" style="enable-background:new 0 0 768 768;" xml:space="preserve">
<style type="text/css">
	.st0{fill:#4867AA;stroke:#000000;stroke-width:10;stroke-miterlimit:10;}
	.st1{fill:#FFE600;}
</style>
<path class="st0" d="M73,135.7l125,176.9L34.7,488.3c0,0,166.8,9.2,370.9,136.8c0,0,118.9-122,328.1-147.6L552.5,314.3l153.1-142.9
	l-224.5,61.2l-163.3-5.1L73,135.7z"/>
<polygon points="384.2,509 440.3,509 412.2,546.4 "/>
<path d="M170.6,416.3c0,0,83.4,18.3,145.5,67.4l101.4-49.8l79.4,48.6c0,0,54.7-39.9,127.6-55.3l-93.4-85.4l-108.3,48.7L309.1,333
	L170.6,416.3z"/>
<polygon class="st1" points="299,381.3 299,427.2 375.5,420.8 "/>
<polygon points="132.5,188.4 205.6,278.6 282.1,265 "/>
<polygon points="520.2,290.5 644.4,212.2 537.2,312.6 "/>
<path d="M358.7,253c0,0,47.6,33.6,53.6,88.4L425,253H358.7z"/>
<polygon class="st1" points="544,381.3 544,427.2 467.5,420.8 "/>
</svg>
